<svg width="84" height="85" viewBox="0 0 84 85" fill="none" xmlns="http://www.w3.org/2000/svg">
<path d="M42.1119 0.999991C65.3561 0.999991 83.0955 18.6846 83.0004 41.2311C82.9618 50.3534 80.0293 58.6963 75.0604 65.3764L80.3818 70.9056L81.112 71.6644L80.3112 72.3558L68.2731 82.7551L67.5046 83.4182L66.8546 82.6448L61.8194 76.6536C55.9889 79.7989 49.1976 81.5813 41.7712 81.5813C18.6396 81.5811 0.904575 63.8919 1.0004 41.2311C1.09598 18.6867 18.9825 1.00017 42.1119 0.999991ZM42.038 18.4803C29.4165 18.4805 19.2432 27.9735 19.1864 41.3492C19.1304 54.6038 29.2201 64.1008 41.8451 64.101C44.5458 64.101 47.0967 63.6256 49.5019 62.8061L44.5306 57.643L43.7819 56.8657L44.6188 56.1763L56.5383 46.3687L57.2987 45.7428L57.9342 46.4898L62.3177 51.6392C63.8099 48.6302 64.6812 45.125 64.6972 41.3492C64.7535 27.9765 54.5465 18.4803 42.038 18.4803Z" fill="#FF9292" stroke="#1A1A1A" stroke-width="2"/>
</svg>
